<svg id="Layer_1" data-name="Layer 1" xmlns="http://www.w3.org/2000/svg" viewBox="0 0 512 512"><defs><style>.cls-1{fill:#4abc96;}.cls-2{fill:#494949;}.cls-3{fill:#5f6060;}.cls-4{fill:#535454;}.cls-5{fill:#565656;}</style></defs><title>massage stones</title><path class="cls-1" d="M256,7.92C119,7.92,7.92,119,7.92,256S119,504.08,256,504.08,504.08,393,504.08,256,393,7.92,256,7.92Z"/><path class="cls-2" d="M256.31,305.84c-83.66,0-151.47,22.11-151.47,58.6s67.82,41.9,151.47,41.9,151.47-5.41,151.47-41.9C407.78,315.63,340,305.84,256.31,305.84Z"/><path class="cls-3" d="M244.27,320.12c-63.12-11-121.38,20.55-126.2,48.08S307.38,331.17,244.27,320.12Z"/><path class="cls-4" d="M264,216.41c-70.94,0-128.44,16.49-128.44,51.22S193.09,312.07,264,312.07s128.44.8,128.44-33.93S335,216.41,264,216.41Z"/><path class="cls-3" d="M253.81,230c-53.52-10.52-102.93,19.56-107,45.77S307.33,240.52,253.81,230Z"/><path class="cls-2" d="M247.42,144.29c-54.39,0-98.49,7.5-98.49,37.85s44.1,45.72,98.49,45.72,98.49-4.5,98.49-34.84C345.92,150.64,301.82,144.29,247.42,144.29Z"/><path class="cls-3" d="M239.6,156.17c-41-9.19-78.92,17.09-82.06,40S280.64,165.35,239.6,156.17Z"/><path class="cls-5" d="M268.43,93.05c-37,0-67,6.59-67,33.14,0,20.64,30,23.7,67,23.7s67-10.12,67-30.76S305.42,93.05,268.43,93.05Z"/><path class="cls-3" d="M263.1,101.13c-27.91-6.25-53.68,11.62-55.81,27.2S291,107.38,263.1,101.13Z"/></svg>